<?xml version="1.0" encoding="UTF-8" standalone="no"?>
<!-- Created with Inkscape (http://www.inkscape.org/) -->

<svg
   xmlns:dc="http://purl.org/dc/elements/1.1/"
   xmlns:cc="http://creativecommons.org/ns#"
   xmlns:rdf="http://www.w3.org/1999/02/22-rdf-syntax-ns#"
   xmlns:svg="http://www.w3.org/2000/svg"
   xmlns="http://www.w3.org/2000/svg"
   xmlns:sodipodi="http://sodipodi.sourceforge.net/DTD/sodipodi-0.dtd"
   xmlns:inkscape="http://www.inkscape.org/namespaces/inkscape"
   version="1.1"
   id="svg29"
   xml:space="preserve"
   width="384"
   height="247.11067"
   viewBox="0 0 384 247.11067"
   sodipodi:docname="logo.svg"
   inkscape:version="0.92.2 (unknown)"><metadata
     id="metadata35"><rdf:RDF><cc:Work
         rdf:about=""><dc:format>image/svg+xml</dc:format><dc:type
           rdf:resource="http://purl.org/dc/dcmitype/StillImage" /><dc:title></dc:title></cc:Work></rdf:RDF></metadata><defs
     id="defs33"><clipPath
       clipPathUnits="userSpaceOnUse"
       id="clipPath45"><path
         d="M 0,185.333 H 288 V 0 H 0 Z"
         id="path43"
         inkscape:connector-curvature="0" /></clipPath></defs><sodipodi:namedview
     pagecolor="#ffffff"
     bordercolor="#666666"
     borderopacity="1"
     objecttolerance="10"
     gridtolerance="10"
     guidetolerance="10"
     inkscape:pageopacity="0"
     inkscape:pageshadow="2"
     inkscape:window-width="1920"
     inkscape:window-height="1037"
     id="namedview31"
     showgrid="false"
     inkscape:zoom="3.0876853"
     inkscape:cx="192"
     inkscape:cy="123.55534"
     inkscape:window-x="0"
     inkscape:window-y="0"
     inkscape:window-maximized="1"
     inkscape:current-layer="g37" /><g
     id="g37"
     inkscape:groupmode="layer"
     inkscape:label="san-diego-legion-logo"
     transform="matrix(1.3333333,0,0,-1.3333333,0,247.11067)"><g
       id="g39"><g
         id="g41"
         clip-path="url(#clipPath45)"><g
           id="g47"
           transform="translate(160.7842,49.7409)"><path
             d="m 0,0 v 67.059 h 9.716 c 0,0 0.001,-54.064 0.001,-54.962 0,-0.9 -0.029,-2.563 -1.349,-4.295 C 5.98,4.829 3.148,2.189 0,0 m -10.82,-15.794 c 11.864,0.477 25.139,9.435 31.271,20.461 1.774,3.646 2.167,5.271 2.167,9.084 -10e-4,5.625 -10e-4,16.581 -10e-4,16.581 l 10e-4,48.679 H -12.901 V -15.877 Z M -33.685,0 c -3.148,2.189 -5.981,4.829 -8.369,7.802 -1.319,1.732 -1.348,3.395 -1.348,4.295 l 10e-4,9.673 -12.902,8.562 V 13.751 c 0,-3.813 0.393,-5.438 2.167,-9.084 6.132,-11.026 19.407,-19.984 31.272,-20.461 l 2.08,-0.083 v 47.268 l -22.617,15.011 v 20.657 h 9.716 V 50.582 l 12.901,-8.606 V 79.011 H -56.303 V 40.845 l 22.618,-15.011 z m 16.842,-26.966 c -2.639,0 -5.594,0.046 -10.1,0.597 l -0.237,0.032 c -14.471,2.088 -29.168,12.435 -36.57,25.746 l -0.146,0.263 -0.132,0.27 c -2.51,5.16 -3.275,8.407 -3.275,13.897 v 76.26 h 100.92 v -76.26 c 0,-5.491 -0.765,-8.738 -3.275,-13.898 L 30.21,-0.328 30.063,-0.591 C 22.662,-13.902 7.966,-24.249 -6.506,-26.337 l -0.236,-0.032 c -4.507,-0.551 -7.461,-0.597 -10.101,-0.597"
             style="fill:#dc0021;fill-opacity:1;fill-rule:nonzero;stroke:none"
             id="path49"
             inkscape:connector-curvature="0" /></g><g
           id="g51"
           transform="translate(93.4814,162.2453)"><path
             d="m 0,0 h 4.997 v -8.975 h 5.474 v -2.892 l -10.471,0 z"
             style="fill:#dc0021;fill-opacity:1;fill-rule:nonzero;stroke:none"
             id="path53"
             inkscape:connector-curvature="0" /></g><g
           id="g55"
           transform="translate(108.8462,162.2453)"><path
             d="M 0,0 H 11.374 V -2.498 H 4.832 v -2.186 h 6.131 V -7.183 H 4.832 v -2.186 h 6.607 v -2.498 H 0 Z"
             style="fill:#dc0021;fill-opacity:1;fill-rule:nonzero;stroke:none"
             id="path57"
             inkscape:connector-curvature="0" /></g><g
           id="g59"
           transform="translate(135.8857,158.6291)"><path
             d="m 0,0 c -0.065,0.312 -0.262,0.674 -0.624,0.954 -0.362,0.279 -0.904,0.477 -1.693,0.477 -2.138,0 -3.321,-1.431 -3.321,-3.567 0,-2.285 1.053,-3.929 3.534,-3.929 1.085,0 1.874,0.165 2.318,0.411 v 1.808 h -2.893 v 2.498 h 7.89 V -7.61 c -2.334,-0.542 -5.424,-0.953 -8.038,-0.953 -5.966,0 -7.807,2.596 -7.807,6.098 0,4.455 3.139,6.394 8.366,6.394 4.307,0 7.397,-0.937 7.479,-3.929 z"
             style="fill:#dc0021;fill-opacity:1;fill-rule:nonzero;stroke:none"
             id="path61"
             inkscape:connector-curvature="0" /></g><path
           d="m 147.066,162.245 h 4.996 v -11.867 h -4.996 z"
           style="fill:#dc0021;fill-opacity:1;fill-rule:nonzero;stroke:none"
           id="path63"
           inkscape:connector-curvature="0" /><g
           id="g65"
           transform="translate(165.4258,159.8625)"><path
             d="m 0,0 c -1.644,0 -2.844,-1.118 -2.844,-3.55 0,-2.433 1.2,-3.552 2.844,-3.552 1.645,0 2.843,1.119 2.843,3.552 C 2.843,-1.118 1.645,0 0,0 M 6.395,-7.742 C 5.111,-8.975 3.058,-9.797 0,-9.797 c -5.803,0 -7.938,2.695 -7.938,6.247 0,2.301 0.92,3.96 2.284,4.93 C -4.52,2.186 -3.057,2.696 0,2.696 5.803,2.696 7.939,0 7.939,-3.55 7.939,-5.375 7.38,-6.805 6.395,-7.742"
             style="fill:#dc0021;fill-opacity:1;fill-rule:nonzero;stroke:none"
             id="path67"
             inkscape:connector-curvature="0" /></g><g
           id="g69"
           transform="translate(178.7051,162.2453)"><path
             d="m 0,0 h 7.314 l 3.995,-7.955 h 0.048 V 0 h 4.339 V -11.867 H 8.612 l -4.24,8.448 H 4.339 v -8.448 H 0 Z"
             style="fill:#dc0021;fill-opacity:1;fill-rule:nonzero;stroke:none"
             id="path71"
             inkscape:connector-curvature="0" /></g></g></g></g></svg>